<svg fill="#000000" xmlns="http://www.w3.org/2000/svg"  viewBox="0 0 50 50" width="50px" height="50px"><path d="M 34.089844 2.671875 C 34.022844 2.671875 33.956672 2.6746406 33.888672 2.6816406 C 29.902672 3.0856406 22.646562 7.2664375 23.101562 15.523438 C 23.421492 21.320667 25.241999 25.470898 27.421875 28.404297 L 24.861328 27.28125 C 24.790328 27.24825 24.710578 27.250344 24.642578 27.277344 L 21.628906 28.521484 C 21.561906 28.549484 21.529641 28.624453 21.556641 28.689453 C 21.581641 28.751453 21.649891 28.783625 21.712891 28.765625 L 24.738281 27.919922 L 27.855469 28.939453 C 31.433988 33.412213 35.750102 34.821212 36.046875 34.912109 C 36.239875 34.971109 36.436813 35 36.632812 35 C 37.085813 35 37.531578 34.845734 37.892578 34.552734 C 38.409578 34.133734 38.682047 33.483312 38.623047 32.820312 L 38.369141 29.988281 C 39.619014 29.717496 41.47243 28.236184 42.316406 26.107422 C 42.551344 25.514105 40.150976 27.426333 38.15625 27.613281 L 37.949219 25.296875 C 38.402897 25.16647 38.805334 24.724529 39.037109 24.701172 C 39.295109 24.675172 39.320891 24.933813 39.837891 24.882812 C 40.354891 24.831813 39.399484 23.098578 38.521484 22.142578 C 37.704955 21.25351 38.229839 17.975989 37.185547 16.792969 L 36.082031 4.4921875 C 36.034031 3.9601875 35.775281 3.4699063 35.363281 3.1289062 C 35.004281 2.8319062 34.552844 2.671875 34.089844 2.671875 z M 34.089844 4.671875 L 35.171875 16.726562 C 34.158052 17.978921 35.393754 21.319626 34.728516 22.386719 C 34.041516 23.488719 33.4195 25.367266 33.9375 25.322266 C 34.4555 25.277266 34.432406 25.018094 34.691406 24.996094 C 34.936189 24.975221 35.454346 25.387439 35.949219 25.392578 L 36.332031 29.644531 C 36.302399 29.320225 36.239616 28.62593 36.146484 27.685547 C 34.149484 27.883547 31.411906 26.42675 31.753906 26.96875 C 32.986335 28.922845 35.079991 29.998591 36.369141 30.0625 L 36.632812 33 C 36.632812 33 25.887609 29.710063 25.099609 15.414062 C 24.705609 8.2660625 31.063844 4.978875 34.089844 4.671875 z M 19.917969 13.912109 C 14.995969 13.912109 9.0509531 16.937078 7.6269531 23.580078 C 4.3719531 38.770078 14.577672 45.416406 15.013672 45.691406 C 15.338672 45.896406 15.710031 46 16.082031 46 C 16.356031 46 16.630672 45.944078 16.888672 45.830078 C 17.497672 45.561078 17.933781 45.006563 18.050781 44.351562 L 18.958984 39.261719 C 20.718858 39.630451 22.664011 41.442215 22.498047 40.900391 C 21.912763 38.984828 20.272731 37.964097 19.234375 37.726562 L 19.378906 36.916016 C 19.850838 36.909726 20.355915 36.588316 20.585938 36.626953 C 20.841938 36.669953 20.798547 36.924719 21.310547 37.011719 C 21.822547 37.098719 21.357719 35.175484 20.761719 34.021484 C 20.20844 32.948403 21.574853 29.926609 20.878906 28.509766 L 23.050781 16.351562 C 23.144781 15.825563 23.024797 15.284656 22.716797 14.847656 C 22.408797 14.410656 21.937156 14.115344 21.410156 14.027344 C 20.952156 13.951344 20.450969 13.912109 19.917969 13.912109 z M 40.705078 14.560547 C 40.627078 14.548547 40.548234 14.571234 40.490234 14.615234 L 37.910156 16.607422 C 37.853156 16.651422 37.843672 16.733062 37.888672 16.789062 C 37.929672 16.842063 38.002594 16.853313 38.058594 16.820312 L 40.755859 15.207031 L 44.615234 15.400391 C 44.686234 15.404391 44.747953 15.349344 44.751953 15.277344 C 44.754953 15.210344 44.705625 15.152578 44.640625 15.142578 L 40.705078 14.560547 z M 31.1875 15.337891 L 27.427734 16.632812 C 27.365734 16.654812 27.32775 16.720156 27.34375 16.785156 C 27.36075 16.855156 27.431953 16.899813 27.501953 16.882812 L 31.259766 15.982422 L 34.207031 17.072266 C 34.268031 17.095266 34.337187 17.068766 34.367188 17.009766 C 34.399187 16.945766 34.374547 16.865984 34.310547 16.833984 L 31.408203 15.351562 C 31.343203 15.319562 31.2615 15.310891 31.1875 15.337891 z M 19.917969 15.912109 C 20.348969 15.912109 20.741031 15.943 21.082031 16 L 18.953125 27.916016 C 17.645785 28.857575 17.959763 32.405851 17.037109 33.259766 C 16.084109 34.141766 14.992906 35.791766 15.503906 35.884766 C 16.014906 35.977766 16.061406 35.720578 16.316406 35.767578 C 16.558093 35.812124 16.948892 36.344512 17.423828 36.480469 L 17.283203 37.269531 C 16.241313 37.112299 14.291374 37.497245 13.0625 39.134766 C 12.717886 39.592935 15.224221 38.51805 17.009766 38.804688 L 16.082031 44 C 16.082031 44 6.5820312 38 9.5820312 24 C 10.912031 17.796 16.561969 15.912109 19.917969 15.912109 z M 43.837891 16.34375 C 43.073781 16.333484 41.618281 16.756922 40.894531 17.044922 C 39.929531 17.430922 38.239047 18.101406 38.623047 19.066406 C 38.815047 19.549406 39.974453 19.648672 40.939453 19.263672 C 42.628453 18.590672 44.510359 17.002531 44.318359 16.519531 C 44.270359 16.398781 44.092594 16.347172 43.837891 16.34375 z M 29.294922 17.978516 C 28.569797 18.013016 27.964188 18.129219 27.929688 18.386719 C 27.861688 18.901719 30.076906 19.982656 31.878906 20.222656 C 32.908906 20.359656 34.005219 19.981797 34.074219 19.466797 C 34.211219 18.436797 32.410859 18.195594 31.380859 18.058594 C 30.865859 17.990094 30.020047 17.944016 29.294922 17.978516 z M 15.478516 25.525391 L 11.509766 25.785156 C 11.443766 25.790156 11.390672 25.844109 11.388672 25.912109 C 11.386672 25.984109 11.441672 26.044875 11.513672 26.046875 L 15.376953 26.167969 L 17.933594 27.994141 C 17.986594 28.032141 18.060469 28.025563 18.105469 27.976562 C 18.151469 27.923562 18.148703 27.841969 18.095703 27.792969 L 15.685547 25.597656 C 15.631547 25.549656 15.556516 25.519391 15.478516 25.525391 z M 14.25 27.603516 C 12.804937 27.587813 11.415453 27.880422 11.345703 28.263672 C 11.252703 28.774672 13.505344 29.447766 14.527344 29.634766 C 15.550344 29.820766 17.339391 30.146047 17.525391 29.123047 C 17.618391 28.612047 16.689969 27.916469 15.667969 27.730469 C 15.220719 27.648969 14.731687 27.60875 14.25 27.603516 z M 23.164062 29.25 C 22.415375 29.296359 21.776187 29.58475 21.710938 29.96875 C 21.537938 30.99275 23.329516 31.29575 24.353516 31.46875 C 25.377516 31.64175 27.7255 31.776672 27.8125 31.263672 C 27.8995 30.750672 25.724641 29.592063 23.931641 29.289062 C 23.675391 29.245812 23.413625 29.234547 23.164062 29.25 z"/></svg>